<mxfile host="app.diagrams.net" modified="2024-02-06T11:46:35.286Z" agent="Mozilla/5.0 (Macintosh; Intel Mac OS X 10_15_7) AppleWebKit/537.36 (KHTML, like Gecko) Chrome/119.0.0.0 Safari/537.36" etag="aocBcQbcFkElSVPeJvc5" version="23.1.1" type="device">
  <diagram name="Page-1" id="Ag8lX2Zi7vrzV43mhq7H">
    <mxGraphModel dx="1306" dy="835" grid="1" gridSize="10" guides="1" tooltips="1" connect="1" arrows="1" fold="1" page="1" pageScale="1" pageWidth="827" pageHeight="1169" math="0" shadow="0">
      <root>
        <mxCell id="0" />
        <mxCell id="1" parent="0" />
        <mxCell id="PmdwINGEc-DY0jh3Ih-T-57" value="" style="edgeStyle=orthogonalEdgeStyle;rounded=0;orthogonalLoop=1;jettySize=auto;html=1;" parent="1" source="PmdwINGEc-DY0jh3Ih-T-58" target="PmdwINGEc-DY0jh3Ih-T-61" edge="1">
          <mxGeometry relative="1" as="geometry" />
        </mxCell>
        <mxCell id="PmdwINGEc-DY0jh3Ih-T-58" value="Inizio&lt;span style=&quot;white-space: pre;&quot;&gt;&#x9;&lt;/span&gt;" style="ellipse;whiteSpace=wrap;html=1;aspect=fixed;fillColor=#60a917;strokeColor=#2D7600;fontColor=#ffffff;" parent="1" vertex="1">
          <mxGeometry x="43.5" y="176.5" width="52.5" height="52.5" as="geometry" />
        </mxCell>
        <mxCell id="PmdwINGEc-DY0jh3Ih-T-59" value="Password Recovery" style="text;html=1;strokeColor=none;fillColor=none;align=center;verticalAlign=middle;whiteSpace=wrap;rounded=0;" parent="1" vertex="1">
          <mxGeometry x="40" y="134" width="60" height="30" as="geometry" />
        </mxCell>
        <mxCell id="tISsrl1AkZVX2gtA-dDL-2" value="" style="edgeStyle=orthogonalEdgeStyle;rounded=0;orthogonalLoop=1;jettySize=auto;html=1;" edge="1" parent="1" source="PmdwINGEc-DY0jh3Ih-T-61" target="tISsrl1AkZVX2gtA-dDL-1">
          <mxGeometry relative="1" as="geometry" />
        </mxCell>
        <mxCell id="PmdwINGEc-DY0jh3Ih-T-61" value="Password Recovery Page" style="rounded=1;whiteSpace=wrap;html=1;fillColor=#ffe6cc;strokeColor=#d79b00;" parent="1" vertex="1">
          <mxGeometry x="136" y="179" width="100" height="47.5" as="geometry" />
        </mxCell>
        <mxCell id="tISsrl1AkZVX2gtA-dDL-4" value="" style="edgeStyle=orthogonalEdgeStyle;rounded=0;orthogonalLoop=1;jettySize=auto;html=1;" edge="1" parent="1" source="tISsrl1AkZVX2gtA-dDL-1" target="tISsrl1AkZVX2gtA-dDL-3">
          <mxGeometry relative="1" as="geometry" />
        </mxCell>
        <mxCell id="tISsrl1AkZVX2gtA-dDL-1" value="Inserimento email e submut" style="rounded=1;whiteSpace=wrap;html=1;fillColor=#dae8fc;strokeColor=#6c8ebf;" vertex="1" parent="1">
          <mxGeometry x="283" y="178" width="100" height="50" as="geometry" />
        </mxCell>
        <mxCell id="tISsrl1AkZVX2gtA-dDL-6" value="" style="edgeStyle=orthogonalEdgeStyle;rounded=0;orthogonalLoop=1;jettySize=auto;html=1;" edge="1" parent="1" source="tISsrl1AkZVX2gtA-dDL-3" target="tISsrl1AkZVX2gtA-dDL-5">
          <mxGeometry relative="1" as="geometry" />
        </mxCell>
        <mxCell id="tISsrl1AkZVX2gtA-dDL-3" value="Email di recupero password" style="rounded=1;whiteSpace=wrap;html=1;fillColor=#ffe6cc;strokeColor=#d79b00;" vertex="1" parent="1">
          <mxGeometry x="430" y="179" width="100" height="47.5" as="geometry" />
        </mxCell>
        <mxCell id="tISsrl1AkZVX2gtA-dDL-8" value="" style="edgeStyle=orthogonalEdgeStyle;rounded=0;orthogonalLoop=1;jettySize=auto;html=1;" edge="1" parent="1" source="tISsrl1AkZVX2gtA-dDL-5" target="tISsrl1AkZVX2gtA-dDL-7">
          <mxGeometry relative="1" as="geometry">
            <Array as="points">
              <mxPoint x="630" y="260" />
              <mxPoint x="186" y="260" />
            </Array>
          </mxGeometry>
        </mxCell>
        <mxCell id="tISsrl1AkZVX2gtA-dDL-5" value="Click link per recuper password nella mail" style="rounded=1;whiteSpace=wrap;html=1;fillColor=#dae8fc;strokeColor=#6c8ebf;" vertex="1" parent="1">
          <mxGeometry x="580" y="178" width="100" height="50" as="geometry" />
        </mxCell>
        <mxCell id="tISsrl1AkZVX2gtA-dDL-11" value="" style="edgeStyle=orthogonalEdgeStyle;rounded=0;orthogonalLoop=1;jettySize=auto;html=1;" edge="1" parent="1" source="tISsrl1AkZVX2gtA-dDL-7" target="tISsrl1AkZVX2gtA-dDL-9">
          <mxGeometry relative="1" as="geometry" />
        </mxCell>
        <mxCell id="tISsrl1AkZVX2gtA-dDL-7" value="Password Change Page" style="rounded=1;whiteSpace=wrap;html=1;fillColor=#ffe6cc;strokeColor=#d79b00;" vertex="1" parent="1">
          <mxGeometry x="136" y="300" width="100" height="47.5" as="geometry" />
        </mxCell>
        <mxCell id="tISsrl1AkZVX2gtA-dDL-13" value="" style="edgeStyle=orthogonalEdgeStyle;rounded=0;orthogonalLoop=1;jettySize=auto;html=1;" edge="1" parent="1" source="tISsrl1AkZVX2gtA-dDL-9" target="tISsrl1AkZVX2gtA-dDL-12">
          <mxGeometry relative="1" as="geometry" />
        </mxCell>
        <mxCell id="tISsrl1AkZVX2gtA-dDL-9" value="Inserimento password e copia password e submut" style="rounded=1;whiteSpace=wrap;html=1;fillColor=#dae8fc;strokeColor=#6c8ebf;" vertex="1" parent="1">
          <mxGeometry x="283" y="298" width="100" height="50" as="geometry" />
        </mxCell>
        <mxCell id="tISsrl1AkZVX2gtA-dDL-15" value="" style="edgeStyle=orthogonalEdgeStyle;rounded=0;orthogonalLoop=1;jettySize=auto;html=1;" edge="1" parent="1" source="tISsrl1AkZVX2gtA-dDL-12" target="tISsrl1AkZVX2gtA-dDL-14">
          <mxGeometry relative="1" as="geometry" />
        </mxCell>
        <mxCell id="tISsrl1AkZVX2gtA-dDL-12" value="Cambio password avvenuto con successo" style="rounded=1;whiteSpace=wrap;html=1;fillColor=#ffe6cc;strokeColor=#d79b00;" vertex="1" parent="1">
          <mxGeometry x="430" y="299" width="100" height="47.5" as="geometry" />
        </mxCell>
        <mxCell id="tISsrl1AkZVX2gtA-dDL-14" value="Arrivo" style="ellipse;whiteSpace=wrap;html=1;aspect=fixed;fillColor=#e51400;strokeColor=#B20000;fontColor=#ffffff;" vertex="1" parent="1">
          <mxGeometry x="603.75" y="296.5" width="52.5" height="52.5" as="geometry" />
        </mxCell>
        <mxCell id="tISsrl1AkZVX2gtA-dDL-16" value="Login Page" style="text;html=1;strokeColor=none;fillColor=none;align=center;verticalAlign=middle;whiteSpace=wrap;rounded=0;" vertex="1" parent="1">
          <mxGeometry x="600" y="267" width="60" height="30" as="geometry" />
        </mxCell>
      </root>
    </mxGraphModel>
  </diagram>
</mxfile>
